Patient4_TMGait_0pt5_01_left_35_GRF.mot
version=1
nRows=39
nColumns=19
inDegrees=no
endheader
time	F1x	F1y	F1z	M1x	M1y	M1z	F2x	F2y	F2z	M2x	M2y	M2z	EC1x	EC1y	EC1z	EC2x	EC2y	EC2z
46.61	1.1639	8.492	-15.7111	1.1618	10.2812	2.6189	-8.6994	726.3857	-47.7778	262.3049	40.9224	593.5311	-0.0592	0.0182	-0.0073	-0.0462	0.0165	0.9585
46.6234	0.547	6.2951	-10.6282	0.60477	6.8362	2.3942	-8.9297	739.9575	-47.4947	266.7774	41.19	602.5734	-0.0592	0.0182	-0.0073	-0.0462	0.0165	0.9585
46.6369	0.048856	4.4212	-6.3015	0.11929	3.9297	2.1775	-8.991	754.6752	-47.459	271.5646	41.4775	612.1137	-0.0592	0.0182	-0.0073	-0.0462	0.0165	0.9585
46.6503	-0.31288	2.9925	-2.983	-0.26463	1.7155	1.998	-8.8486	769.2501	-47.719	276.1936	41.7676	621.2164	-0.0592	0.0182	-0.0073	-0.0462	0.0165	0.9585
46.6637	-0.55237	2.0148	-0.67174	-0.54599	0.18009	1.8718	-8.488	782.3664	-48.2908	280.1885	42.0632	628.9412	-0.0592	0.0182	-0.0073	-0.0462	0.0165	0.9585
46.6771	-0.69203	1.4162	0.77752	-0.73454	-0.77993	1.7832	-7.9237	792.8308	-49.1593	283.1289	42.3747	634.442	-0.0592	0.0182	-0.0073	-0.0462	0.0165	0.9585
46.6906	-0.76751	1.099	1.564	-0.84197	-1.3048	1.7174	-7.2045	799.7497	-50.2759	284.7123	42.7121	637.0979	-0.0592	0.0182	-0.0073	-0.0462	0.0165	0.9585
46.704	-0.8128	0.93872	1.8864	-0.87307	-1.5311	1.6249	-6.3891	802.6581	-51.5597	284.7998	43.0714	636.5991	-0.0592	0.0182	-0.0073	-0.0462	0.0165	0.9585
46.7174	-0.85184	0.79708	1.9238	-0.82472	-1.5826	1.4447	-5.5396	801.5517	-52.9163	283.4245	43.4358	632.9672	-0.0592	0.0182	-0.0073	-0.0462	0.0165	0.9585
46.7309	-0.90215	0.54251	1.8042	-0.68688	-1.5405	1.1122	-4.695	796.8619	-54.2506	280.7831	43.7758	626.5367	-0.0592	0.0182	-0.0073	-0.0462	0.0165	0.9585
46.7443	-0.96388	0.05725	1.63	-0.44242	-1.4704	0.55042	-3.8686	789.3496	-55.4939	277.192	44.0612	617.8835	-0.0592	0.0182	-0.0073	-0.0462	0.0165	0.9585
46.7577	-1.0329	-0.74019	1.446	-0.077398	-1.393	-0.29792	-3.0468	779.9562	-56.6193	273.0285	44.2726	607.7124	-0.0592	0.0182	-0.0073	-0.0462	0.0165	0.9585
46.7711	-1.0813	-1.8922	1.2938	0.41514	-1.3303	-1.4674	-2.1714	769.6541	-57.6284	268.6756	44.3927	596.7399	-0.0592	0.0182	-0.0073	-0.0462	0.0165	0.9585
46.7846	-1.0639	-3.3609	1.1675	1.0177	-1.2571	-2.9204	-1.1585	759.32	-58.5441	264.473	44.411	585.6148	-0.0592	0.0182	-0.0073	-0.0462	0.0165	0.9585
46.798	-0.92289	-5.0002	1.0707	1.6765	-1.1522	-4.5285	0.10549	749.6006	-59.3776	260.6721	44.3003	574.8007	-0.0592	0.0182	-0.0073	-0.0462	0.0165	0.9585
46.8114	-0.58163	-6.4926	0.97894	2.2727	-0.96356	-6.0002	1.7404	740.9008	-60.1179	257.4307	44.0167	564.5769	-0.0592	0.0182	-0.0073	-0.0462	0.0165	0.9585
46.8249	0.04415	-7.3009	0.88268	2.6027	-0.64964	-6.8281	3.846	733.4564	-60.7265	254.8365	43.501	555.096	-0.0592	0.0182	-0.0073	-0.0462	0.0165	0.9585
46.8383	1.0517	-6.6054	0.7511	2.3537	-0.14661	-6.2429	6.4622	727.4534	-61.1573	252.9477	42.705	546.488	-0.0592	0.0182	-0.0073	-0.0462	0.0165	0.9585
46.8517	2.5049	-3.2741	0.56893	1.092	0.58372	-3.1692	9.5477	723.1143	-61.3528	251.8196	41.5948	538.9375	-0.0592	0.0182	-0.0073	-0.0462	0.0165	0.9585
46.8651	4.4166	4.0964	0.30805	-1.7225	1.5666	3.7302	13.0047	720.6664	-61.2651	251.4942	40.159	532.6498	-0.0592	0.0182	-0.0073	-0.0462	0.0165	0.9585
46.8786	6.6799	17.0646	-0.041803	-6.6851	2.7619	15.9426	16.663	720.2206	-60.8654	251.9589	38.4168	527.7925	-0.0592	0.0182	-0.0073	-0.0462	0.0165	0.9585
46.892	8.9985	37.0711	-0.48001	-14.3387	4.0454	34.8391	20.3069	721.5342	-60.1548	253.0676	36.4272	524.3026	-0.0592	0.0182	-0.0073	-0.0462	0.0165	0.9585
46.9054	10.8034	64.9412	-0.97233	-24.9882	5.158	61.2149	23.6699	723.7879	-59.1209	254.468	34.2599	521.7311	-0.0592	0.0182	-0.0073	-0.0462	0.0165	0.9585
46.9189	11.1807	100.1458	-1.4279	-38.421	5.6626	94.6181	26.4725	725.4272	-57.7396	255.5534	31.995	519.112	-0.0592	0.0182	-0.0073	-0.0462	0.0165	0.9585
46.9323	9.0189	139.9537	-1.6844	-53.5829	4.9848	132.5338	28.5025	724.312	-55.9654	255.5279	29.691	515.0432	-0.0592	0.0182	-0.0073	-0.0462	0.0165	0.9585
46.9457	3.9525	179.2146	-1.4275	-68.4891	2.7001	170.1696	29.6404	718.2481	-53.7607	253.5982	27.3852	508.0309	-0.0592	0.0182	-0.0073	-0.0462	0.0165	0.9585
46.9591	-2.5597	212.3742	-0.19423	-80.9888	-1.0797	202.2332	29.9368	705.6861	-51.132	249.2216	25.0902	496.9438	-0.0592	0.0182	-0.0073	-0.0462	0.0165	0.9585
46.9726	-9.0217	236.4993	1.8574	-89.9671	-5.6061	225.7917	29.5626	686.1687	-48.2014	242.2542	22.8454	481.3796	-0.0592	0.0182	-0.0073	-0.0462	0.0165	0.9585
46.986	-14.5868	252.4479	4.2951	-95.7654	-10.1352	241.5163	28.771	660.1968	-45.1791	232.8964	20.7095	461.5806	-0.0592	0.0182	-0.0073	-0.0462	0.0165	0.9585
46.9994	-18.9452	263.1942	6.7005	-99.5423	-14.1401	252.1901	27.845	628.8722	-42.2136	221.569	18.6861	438.2179	-0.0592	0.0182	-0.0073	-0.0462	0.0165	0.9585
47.0129	-22.1605	272.1585	8.8464	-102.6249	-17.4281	261.0179	27.019	593.5766	-39.286	208.8002	16.6861	412.2028	-0.0592	0.0182	-0.0073	-0.0462	0.0165	0.9585
47.0263	-24.4914	282.2026	10.6007	-106.1227	-19.9785	270.5939	26.4618	555.64	-36.2392	195.1048	14.5623	384.4428	-0.0592	0.0182	-0.0073	-0.0462	0.0165	0.9585
47.0397	-26.1928	295.3874	12.0111	-110.8237	-21.9345	282.7454	26.2249	516.1446	-32.8734	180.9085	12.1828	355.7179	-0.0592	0.0182	-0.0073	-0.0462	0.0165	0.9585
47.0531	-27.3521	313.1538	13.1901	-117.2748	-23.4287	298.691	26.2545	475.8786	-29.0576	166.5217	9.4909	326.6276	-0.0592	0.0182	-0.0073	-0.0462	0.0165	0.9585
47.0666	-28.0226	336.2795	14.441	-125.7553	-24.7479	319.0561	26.4249	435.3523	-24.8113	152.1368	6.5494	297.575	-0.0592	0.0182	-0.0073	-0.0462	0.0165	0.9585
47.08	-28.2619	364.6219	16.0819	-136.1889	-26.1952	343.5915	26.5572	394.8436	-20.277	137.847	3.5148	268.7909	-0.0592	0.0182	-0.0073	-0.0462	0.0165	0.9585
47.0934	-28.1561	397.3018	18.4693	-148.2192	-28.1201	371.4255	26.4401	354.4819	-15.6729	123.6841	0.59822	240.3911	-0.0592	0.0182	-0.0073	-0.0462	0.0165	0.9585
47.1069	-27.7394	433.2584	21.6786	-161.4346	-30.6001	401.5309	25.8716	314.405	-11.237	109.6771	-1.9901	212.4786	-0.0592	0.0182	-0.0073	-0.0462	0.0165	0.9585
47.1203	-27.0151	471.5254	25.6639	-175.4751	-33.5973	432.987	24.7066	274.856	-7.1956	95.8921	-4.0733	185.2061	-0.0592	0.0182	-0.0073	-0.0462	0.0165	0.9585
